<?xml version="1.0" standalone="no"?>
<!DOCTYPE svg PUBLIC "-//W3C//DTD SVG 20010904//EN"
 "http://www.w3.org/TR/2001/REC-SVG-20010904/DTD/svg10.dtd">
<svg version="1.0" xmlns="http://www.w3.org/2000/svg"
 width="512.000000pt" height="512.000000pt" viewBox="0 0 512.000000 512.000000"
 preserveAspectRatio="xMidYMid meet">

<g transform="translate(0.000000,512.000000) scale(0.100000,-0.100000)"
fill="#000000" stroke="none">
<path d="M1766 5110 c-251 -40 -509 -184 -660 -369 -166 -202 -247 -423 -249
-676 -3 -246 67 -460 212 -652 144 -191 342 -325 579 -391 88 -24 113 -27 272
-27 151 0 186 3 260 23 310 84 558 285 694 565 204 415 122 903 -206 1228
-134 133 -302 228 -486 275 -109 28 -313 40 -416 24z"/>
<path d="M837 2544 c-209 -38 -384 -131 -537 -284 -157 -157 -248 -331 -285
-548 -13 -73 -15 -169 -13 -530 3 -427 4 -441 24 -468 11 -15 33 -37 48 -48
27 -21 33 -21 1218 -24 654 -1 1188 1 1186 5 -73 145 -92 219 -85 333 5 93 36
188 82 259 l28 41 -28 41 c-14 23 -39 71 -53 108 -23 58 -26 80 -26 181 0 146
10 174 151 418 87 152 121 200 178 257 106 106 224 155 376 155 70 0 78 2 84
21 4 12 3 25 -2 30 -5 5 -54 21 -109 36 l-99 28 -1030 2 c-852 1 -1043 -1
-1108 -13z"/>
<path d="M3623 2335 c-44 -19 -58 -54 -72 -170 -16 -132 -21 -155 -33 -155 -6
0 -45 -21 -85 -46 -43 -26 -81 -44 -91 -41 -9 3 -68 26 -130 52 -102 42 -116
45 -146 35 -45 -14 -49 -20 -155 -205 -127 -223 -127 -223 43 -353 l90 -69 0
-102 1 -103 -102 -79 c-56 -44 -107 -88 -113 -98 -24 -46 -11 -84 81 -246 106
-185 110 -191 155 -205 30 -10 44 -7 146 35 62 26 121 49 130 52 10 3 48 -15
91 -41 40 -25 79 -46 85 -46 12 0 17 -23 33 -155 21 -179 30 -185 289 -185
259 0 268 6 289 185 17 144 19 152 44 159 12 3 50 24 85 47 36 24 70 39 80 36
9 -3 68 -26 130 -52 102 -42 116 -45 146 -35 45 14 49 20 155 205 127 223 127
227 -48 358 l-85 63 0 103 -1 104 97 73 c164 124 164 125 32 356 -126 222
-137 229 -271 173 -49 -20 -106 -43 -128 -52 l-40 -15 -85 52 c-47 28 -88 56
-91 63 -3 7 -12 62 -19 122 -22 191 -28 195 -292 195 -133 -1 -192 -5 -215
-15z m363 -656 c189 -71 306 -266 275 -460 -38 -233 -257 -396 -482 -360 -233
38 -396 257 -360 482 36 224 235 382 456 362 33 -3 83 -14 111 -24z"/>
</g>
</svg>
