<?xml version="1.0" standalone="no"?>
<!DOCTYPE svg PUBLIC "-//W3C//DTD SVG 20010904//EN"
 "http://www.w3.org/TR/2001/REC-SVG-20010904/DTD/svg10.dtd">
<svg version="1.0" xmlns="http://www.w3.org/2000/svg"
 width="512.000000pt" height="512.000000pt" viewBox="0 0 512.000000 512.000000"
 preserveAspectRatio="xMidYMid meet">

<g transform="translate(0.000000,512.000000) scale(0.100000,-0.100000)"
fill="#000000" stroke="none">
<path d="M521 4944 c-169 -45 -301 -180 -346 -351 -23 -87 -22 -1581 0 -1668
47 -178 197 -321 374 -355 33 -6 281 -10 632 -10 l579 0 0 -175 c0 -195 6
-223 59 -268 37 -31 86 -42 139 -32 32 6 71 40 272 241 l236 234 1025 0 c641
0 1047 4 1080 10 183 34 344 195 379 379 14 73 14 1549 0 1622 -25 131 -124
266 -239 328 -123 65 25 61 -2156 60 -1696 0 -1988 -2 -2034 -15z m1032 -479
c178 -46 320 -193 357 -368 7 -35 10 -203 8 -504 -3 -438 -4 -452 -24 -479
-39 -53 -71 -69 -134 -69 -63 0 -95 16 -134 69 -20 25 -21 43 -24 257 l-3 229
-159 0 -159 0 -3 -229 c-3 -214 -4 -232 -24 -257 -39 -53 -71 -69 -134 -69
-63 0 -95 16 -134 69 -20 27 -21 41 -24 479 -2 301 1 469 8 504 55 261 329
434 583 368z m1230 1 c40 -18 232 -212 246 -249 7 -18 11 -182 11 -458 0 -343
-3 -436 -14 -462 -7 -18 -63 -80 -122 -139 -84 -81 -117 -108 -144 -113 -19
-3 -157 -5 -307 -3 -256 3 -273 4 -299 24 -15 11 -37 33 -48 48 -21 27 -21 39
-24 619 -2 326 0 606 3 624 7 40 49 91 90 109 45 20 563 20 608 0z m1303 -12
c53 -39 69 -71 69 -134 0 -63 -16 -95 -69 -134 -25 -19 -45 -21 -262 -26
l-234 -5 -32 -33 c-28 -28 -33 -39 -33 -82 0 -43 5 -54 32 -82 31 -31 36 -32
145 -39 62 -4 127 -12 143 -17 206 -63 343 -281 308 -487 -32 -186 -167 -328
-349 -365 -32 -7 -142 -10 -277 -8 -248 3 -251 4 -301 72 -29 39 -29 133 0
172 50 68 53 69 310 74 l234 5 32 33 c28 28 33 39 33 82 0 43 -5 54 -32 82
-31 31 -35 32 -145 39 -159 10 -241 43 -328 130 -240 240 -125 652 205 735 35
9 123 12 287 11 222 -2 238 -3 264 -23z"/>
<path d="M1375 4146 c-64 -29 -95 -84 -95 -172 l0 -54 161 0 161 0 -4 69 c-3
56 -9 75 -32 106 -46 60 -123 81 -191 51z"/>
<path d="M2400 3760 l0 -400 128 0 128 0 32 33 32 33 0 335 0 335 -33 32 -33
32 -127 0 -127 0 0 -400z"/>
<path d="M1340 1763 l-385 -157 -346 -6 -346 -5 -35 -27 c-70 -53 -69 -46 -66
-541 l3 -444 29 -37 c40 -53 78 -66 190 -66 l94 0 4 -109 c3 -118 12 -141 72
-185 39 -29 133 -29 172 0 60 44 69 67 72 185 l4 109 64 0 c59 0 93 -12 466
-161 358 -143 408 -160 447 -156 47 5 83 27 115 71 20 26 21 42 24 335 l3 307
43 12 c151 40 151 264 0 304 l-43 12 -3 307 c-3 293 -4 309 -24 335 -34 46
-70 67 -121 70 -43 4 -87 -12 -433 -153z m-540 -723 l0 -240 -160 0 -160 0 0
240 0 240 160 0 160 0 0 -240z"/>
</g>
</svg>
