<?xml version="1.0" standalone="no"?>
<!DOCTYPE svg PUBLIC "-//W3C//DTD SVG 20010904//EN"
 "http://www.w3.org/TR/2001/REC-SVG-20010904/DTD/svg10.dtd">
<svg version="1.0" xmlns="http://www.w3.org/2000/svg"
 width="512.000000pt" height="512.000000pt" viewBox="0 0 512.000000 512.000000"
 preserveAspectRatio="xMidYMid meet">

<g transform="translate(0.000000,512.000000) scale(0.100000,-0.100000)"
fill="#000000" stroke="none">
<path d="M2459 4587 c-95 -36 -176 -115 -206 -200 -24 -71 -22 -169 4 -229
l21 -47 -451 -400 -452 -400 -292 -1 c-353 0 -370 -4 -469 -104 -108 -109 -99
3 -99 -1296 0 -1251 -5 -1162 67 -1254 44 -57 80 -85 146 -112 l57 -24 1775 0
1775 0 57 24 c66 27 102 55 146 112 72 92 67 3 67 1254 0 1299 9 1187 -99
1296 -99 100 -116 104 -469 104 l-292 1 -452 400 -451 401 21 46 c45 101 20
243 -58 330 -66 74 -133 105 -230 109 -50 2 -93 -2 -116 -10z m182 -180 c47
-31 82 -104 73 -151 -26 -141 -203 -184 -280 -69 -35 53 -39 98 -12 151 44 89
143 120 219 69z m-172 -443 c61 -19 135 -17 201 6 l54 18 36 -31 c19 -18 190
-169 379 -337 l345 -305 -462 -3 c-254 -1 -670 -1 -924 0 l-461 3 379 337
c250 222 384 335 394 331 8 -3 35 -12 59 -19z m1858 -835 c40 -15 73 -48 94
-94 18 -38 19 -91 19 -1116 0 -777 -3 -1085 -11 -1110 -15 -43 -55 -88 -96
-105 -48 -21 -3498 -21 -3546 0 -41 17 -81 62 -96 105 -8 25 -11 333 -11 1108
0 1164 -2 1112 53 1172 49 53 -49 50 1824 51 1210 0 1750 -3 1770 -11z"/>
<path d="M883 2946 l-28 -24 0 -1007 0 -1007 28 -24 28 -24 1649 0 1649 0 28
24 28 24 0 1007 0 1007 -28 24 -28 24 -1649 0 -1649 0 -28 -24z"/>
</g>
</svg>
