<?xml version="1.0" standalone="no"?>
<!DOCTYPE svg PUBLIC "-//W3C//DTD SVG 20010904//EN"
 "http://www.w3.org/TR/2001/REC-SVG-20010904/DTD/svg10.dtd">
<svg version="1.0" xmlns="http://www.w3.org/2000/svg"
 width="512.000000pt" height="512.000000pt" viewBox="0 0 512.000000 512.000000"
 preserveAspectRatio="xMidYMid meet">

<g transform="translate(0.000000,512.000000) scale(0.100000,-0.100000)"
fill="#000000" stroke="none">
<path d="M515 4786 c-84 -26 -153 -84 -191 -157 -13 -28 -87 -300 -175 -651
-146 -584 -151 -605 -145 -680 28 -391 332 -708 703 -734 218 -16 427 66 586
229 l67 70 68 -69 c301 -310 763 -310 1065 0 l67 69 68 -69 c301 -310 763
-310 1065 0 l67 69 68 -70 c158 -163 367 -245 585 -229 371 26 675 343 703
734 6 75 1 96 -145 680 -88 351 -162 623 -175 651 -29 57 -92 116 -155 145
l-46 21 -2020 2 c-1604 1 -2028 -1 -2060 -11z"/>
<path d="M1295 2388 c-65 -41 -194 -93 -290 -118 -198 -51 -458 -29 -648 54
l-37 16 2 -887 3 -888 26 -56 c33 -71 87 -125 158 -158 l56 -26 678 -3 677 -3
0 641 0 640 640 0 640 0 0 -640 0 -641 678 3 677 3 56 26 c71 33 125 87 158
158 l26 56 3 888 2 887 -37 -16 c-132 -58 -329 -91 -478 -80 -153 10 -332 66
-456 142 -31 18 -62 34 -69 34 -6 0 -37 -15 -68 -33 -313 -183 -751 -183
-1064 0 -31 18 -62 33 -68 33 -6 0 -37 -15 -68 -33 -313 -183 -751 -183 -1064
0 -31 18 -62 33 -70 33 -7 0 -35 -15 -63 -32z"/>
</g>
</svg>
