<?xml version="1.0" standalone="no"?>
<!DOCTYPE svg PUBLIC "-//W3C//DTD SVG 20010904//EN"
 "http://www.w3.org/TR/2001/REC-SVG-20010904/DTD/svg10.dtd">
<svg version="1.0" xmlns="http://www.w3.org/2000/svg"
 width="512.000000pt" height="512.000000pt" viewBox="0 0 512.000000 512.000000"
 preserveAspectRatio="xMidYMid meet">

<g transform="translate(0.000000,512.000000) scale(0.100000,-0.100000)"
fill="#000000" stroke="none">
<path d="M1603 5105 c-106 -32 -187 -106 -224 -204 -19 -48 -23 -83 -27 -236
-5 -211 3 -257 49 -280 25 -14 68 -16 265 -13 l236 3 24 28 c19 22 24 39 24
82 0 91 -40 85 610 85 650 0 610 6 610 -85 0 -43 5 -60 24 -82 l24 -28 230 -3
c274 -4 294 1 313 70 7 29 10 103 7 223 -4 153 -8 188 -26 235 -39 100 -119
173 -222 204 -48 14 -156 16 -964 15 -724 0 -920 -3 -953 -14z"/>
<path d="M763 4186 c-93 -30 -178 -109 -212 -200 -12 -33 -57 -320 -125 -801
-58 -412 -106 -753 -106 -756 0 -4 -30 -9 -68 -11 -106 -6 -184 -56 -228 -144
-28 -56 -28 -292 0 -344 48 -91 125 -140 229 -148 39 -3 67 -9 67 -16 1 -6 49
-351 108 -766 119 -833 114 -813 200 -898 23 -24 69 -56 100 -70 l57 -27 1775
0 1775 0 67 33 c73 36 124 87 160 161 18 37 43 190 130 801 59 415 107 760
108 766 0 7 28 13 68 16 77 6 132 30 178 80 58 61 68 91 72 226 4 121 4 124
-27 187 -48 97 -127 145 -237 145 -30 0 -54 3 -54 8 0 4 -48 345 -106 757 -69
486 -113 768 -126 802 -26 70 -95 145 -166 180 l-57 28 -1770 2 c-1436 1
-1778 -1 -1812 -11z m3219 -549 c72 -35 134 -97 167 -167 l26 -55 0 -1315 0
-1315 -28 -56 c-33 -69 -99 -132 -175 -167 l-57 -27 -1355 0 -1355 0 -62 29
c-73 33 -144 103 -176 174 l-22 47 0 1315 0 1315 26 55 c43 89 127 162 217
186 37 10 329 12 1392 11 l1345 -2 57 -28z"/>
<path d="M1215 3486 c-37 -17 -80 -62 -94 -99 -16 -42 -15 -709 1 -725 9 -9
78 -12 249 -12 207 0 238 2 243 16 3 9 6 194 6 413 0 295 -3 400 -12 409 -18
18 -353 16 -393 -2z"/>
<path d="M1806 3484 c-14 -13 -16 -65 -16 -413 0 -325 3 -401 14 -410 9 -8
107 -11 337 -9 l324 3 3 409 c1 293 -1 413 -9 422 -9 11 -72 14 -325 14 -271
0 -315 -2 -328 -16z"/>
<path d="M2661 3486 c-8 -9 -10 -129 -9 -422 l3 -409 324 -3 c230 -2 328 1
337 9 11 9 14 85 14 410 0 348 -2 400 -16 413 -13 14 -57 16 -328 16 -253 0
-316 -3 -325 -14z"/>
<path d="M3512 3488 c-9 -9 -12 -114 -12 -409 0 -219 3 -404 6 -413 5 -14 36
-16 243 -16 171 0 240 3 249 12 16 16 17 683 1 725 -15 42 -68 92 -109 103
-52 15 -363 13 -378 -2z"/>
<path d="M1122 2458 c-17 -17 -17 -699 0 -716 17 -17 469 -17 486 0 9 9 12
101 12 354 0 188 -3 349 -6 358 -5 14 -36 16 -243 16 -171 0 -240 -3 -249 -12z"/>
<path d="M1802 2458 c-16 -16 -17 -679 -2 -709 10 -18 24 -19 328 -19 174 0
323 4 330 8 9 7 12 87 10 368 l-3 359 -325 3 c-245 2 -329 -1 -338 -10z"/>
<path d="M2657 2463 c-4 -3 -7 -167 -7 -364 0 -316 2 -358 16 -363 9 -3 157
-6 329 -6 301 0 315 1 325 19 15 29 14 693 -2 709 -9 9 -97 12 -333 12 -177 0
-325 -3 -328 -7z"/>
<path d="M3506 2454 c-3 -9 -6 -170 -6 -358 0 -253 3 -345 12 -354 17 -17 469
-17 486 0 17 17 17 699 0 716 -9 9 -78 12 -249 12 -207 0 -238 -2 -243 -16z"/>
<path d="M1128 1549 c-17 -9 -18 -37 -18 -360 0 -273 3 -357 14 -382 17 -42
66 -83 114 -97 48 -13 337 -13 363 0 18 10 19 26 19 420 0 394 -1 410 -19 420
-26 13 -450 13 -473 -1z"/>
<path d="M1807 1542 c-15 -17 -17 -60 -17 -415 l0 -396 22 -15 c19 -14 67 -16
321 -16 186 0 306 4 318 10 18 10 19 26 19 418 0 304 -3 411 -12 420 -9 9 -95
12 -323 12 -289 0 -313 -1 -328 -18z"/>
<path d="M2662 1548 c-9 -9 -12 -116 -12 -420 0 -392 1 -408 19 -418 12 -6
132 -10 318 -10 254 0 302 2 321 16 l22 15 0 398 c0 373 -1 399 -18 414 -16
15 -54 17 -328 17 -228 0 -313 -3 -322 -12z"/>
<path d="M3518 1549 c-17 -9 -18 -40 -18 -419 0 -405 0 -409 21 -420 14 -8 79
-10 192 -8 193 3 214 10 264 75 l28 36 3 361 c3 332 1 362 -15 373 -21 16
-449 18 -475 2z"/>
</g>
</svg>
