<?xml version="1.0" standalone="no"?>
<!DOCTYPE svg PUBLIC "-//W3C//DTD SVG 20010904//EN"
 "http://www.w3.org/TR/2001/REC-SVG-20010904/DTD/svg10.dtd">
<svg version="1.0" xmlns="http://www.w3.org/2000/svg"
 width="512.000000pt" height="512.000000pt" viewBox="0 0 512.000000 512.000000"
 preserveAspectRatio="xMidYMid meet">

<g transform="translate(0.000000,512.000000) scale(0.100000,-0.100000)"
fill="#000000" stroke="none">
<path d="M2592 4881 c-65 -42 -62 13 -62 -1109 l0 -1019 23 -34 c49 -74 -27
-69 1114 -67 1021 3 1022 3 1050 24 15 12 37 36 47 54 18 31 19 41 8 149 -36
357 -156 701 -354 1006 -205 318 -540 616 -883 788 -238 119 -564 209 -800
222 -100 6 -113 5 -143 -14z"/>
<path d="M2060 4723 c-99 -8 -292 -44 -412 -77 -788 -217 -1414 -877 -1592
-1679 -41 -182 -51 -280 -50 -497 0 -376 65 -659 230 -996 181 -372 480 -700
839 -924 672 -418 1553 -443 2255 -63 164 89 404 263 442 322 29 42 24 111
-11 157 -16 21 -354 363 -751 759 -397 396 -728 732 -736 747 -12 23 -14 185
-14 1080 0 1021 -1 1054 -20 1096 -15 33 -29 47 -62 62 -24 11 -50 19 -58 18
-8 -1 -35 -3 -60 -5z"/>
<path d="M3145 2340 c-33 -13 -66 -56 -75 -95 -18 -82 -33 -65 623 -723 337
-338 634 -632 660 -654 38 -33 58 -42 95 -45 62 -5 85 8 155 92 284 337 457
752 508 1216 10 95 10 110 -6 142 -9 20 -32 46 -50 57 -32 20 -47 20 -961 19
-511 0 -938 -4 -949 -9z"/>
</g>
</svg>
