<?xml version="1.0" standalone="no"?>
<!DOCTYPE svg PUBLIC "-//W3C//DTD SVG 20010904//EN"
 "http://www.w3.org/TR/2001/REC-SVG-20010904/DTD/svg10.dtd">
<svg version="1.0" xmlns="http://www.w3.org/2000/svg"
 width="512.000000pt" height="512.000000pt" viewBox="0 0 512.000000 512.000000"
 preserveAspectRatio="xMidYMid meet">

<g transform="translate(0.000000,512.000000) scale(0.100000,-0.100000)"
fill="#000000" stroke="none">
<path d="M490 5111 c-56 -18 -110 -53 -148 -96 -78 -88 -72 53 -72 -1770 0
-1823 -6 -1682 72 -1770 22 -25 64 -58 92 -73 l51 -27 311 -3 310 -3 12 -98
c78 -622 550 -1122 1179 -1248 133 -27 414 -24 550 5 616 133 1078 630 1155
1243 l12 98 310 3 311 3 51 27 c28 15 70 48 92 73 77 87 72 0 72 1310 l0 1172
-31 61 c-45 91 -115 144 -221 166 l-27 6 -3 258 -3 259 -28 41 c-15 23 -45 51
-67 62 -39 20 -55 20 -1283 20 l-1243 0 -39 80 c-43 87 -95 146 -165 182 l-45
23 -590 2 c-324 1 -601 -2 -615 -6z m1185 -165 c18 -8 41 -25 50 -39 8 -14 97
-197 196 -408 100 -211 193 -396 207 -411 57 -62 -22 -58 1266 -58 1287 0
1216 3 1269 -59 l27 -33 0 -1155 c0 -1289 6 -1189 -70 -1232 -36 -20 -52 -21
-322 -21 l-284 0 -12 103 c-73 615 -536 1116 -1155 1249 -136 29 -417 32 -550
5 -574 -115 -1016 -536 -1152 -1099 -14 -56 -28 -138 -31 -180 l-7 -78 -285 0
c-270 0 -286 1 -322 21 -76 43 -70 -112 -70 1694 0 1802 -6 1650 69 1694 35
20 47 21 589 21 454 0 559 -3 587 -14z m1724 -2643 c11 -10 24 -32 27 -49 5
-25 0 -38 -26 -68 -23 -25 -30 -41 -25 -54 14 -33 42 -564 32 -612 -8 -42 -36
-72 -435 -472 -235 -236 -441 -435 -458 -443 -43 -20 -127 -19 -172 2 -48 23
-611 592 -634 641 -20 43 -22 81 -7 137 9 34 75 105 437 468 339 339 436 431
470 444 40 15 60 14 345 -10 l302 -26 30 30 c34 34 81 39 114 12z"/>
<path d="M2254 1749 c-255 -255 -404 -411 -404 -424 0 -12 105 -124 277 -297
218 -218 283 -278 303 -278 20 0 109 84 428 404 396 396 403 404 398 437 -3
19 -8 90 -11 159 -9 200 -16 263 -28 251 -6 -6 -11 -40 -12 -75 -1 -79 -32
-133 -97 -165 -140 -67 -290 50 -257 200 21 92 86 139 191 139 113 0 47 17
-112 29 -85 6 -181 14 -213 18 l-59 6 -404 -404z"/>
<path d="M3010 1920 c0 -15 5 -20 18 -18 9 2 17 10 17 18 0 8 -8 16 -17 18
-13 2 -18 -3 -18 -18z"/>
</g>
</svg>
