<?xml version="1.0" standalone="no"?>
<!DOCTYPE svg PUBLIC "-//W3C//DTD SVG 20010904//EN"
 "http://www.w3.org/TR/2001/REC-SVG-20010904/DTD/svg10.dtd">
<svg version="1.0" xmlns="http://www.w3.org/2000/svg"
 width="512.000000pt" height="512.000000pt" viewBox="0 0 512.000000 512.000000"
 preserveAspectRatio="xMidYMid meet">

<g transform="translate(0.000000,512.000000) scale(0.100000,-0.100000)"
fill="#000000" stroke="none">
<path d="M2583 4176 c-293 -56 -528 -237 -657 -506 -18 -38 -36 -79 -39 -91
-5 -18 -10 -21 -39 -15 -18 4 -85 9 -148 12 -259 13 -488 -74 -671 -256 -102
-101 -171 -207 -214 -329 l-14 -41 1784 0 1784 0 -14 39 c-33 96 -89 172 -162
222 -60 41 -166 79 -224 79 -44 0 -47 2 -65 42 -46 102 -157 199 -258 228 -45
12 -47 15 -85 95 -121 259 -331 437 -596 505 -103 27 -284 35 -382 16z"/>
<path d="M615 2733 c-51 -27 -83 -63 -109 -127 -14 -33 -132 -367 -262 -741
-202 -580 -237 -689 -238 -740 -1 -73 21 -117 83 -160 l43 -30 2428 0 2428 0
43 30 c62 43 84 87 83 160 -1 51 -37 163 -252 777 -138 394 -258 730 -266 745
-17 35 -51 66 -93 87 -29 15 -202 16 -1945 16 -1723 -1 -1916 -2 -1943 -17z
m1205 -410 c64 -28 107 -68 142 -130 l30 -53 579 0 579 0 14 34 c21 50 83 114
140 144 44 23 64 27 136 27 71 0 93 -4 133 -24 65 -34 115 -85 145 -151 49
-104 39 -208 -28 -304 -37 -53 -38 -55 -19 -72 31 -28 68 -115 75 -175 24
-206 -177 -377 -380 -324 -80 21 -144 68 -185 138 l-34 57 -582 0 -583 0 -10
-30 c-17 -47 -97 -125 -155 -150 -156 -68 -349 12 -408 170 -38 100 -16 228
53 312 l22 28 -22 22 c-11 13 -33 49 -48 82 -23 51 -26 67 -22 135 5 93 40
165 106 219 88 72 220 91 322 45z"/>
</g>
</svg>
