<?xml version="1.0" standalone="no"?>
<!DOCTYPE svg PUBLIC "-//W3C//DTD SVG 20010904//EN"
 "http://www.w3.org/TR/2001/REC-SVG-20010904/DTD/svg10.dtd">
<svg version="1.0" xmlns="http://www.w3.org/2000/svg"
 width="512.000000pt" height="512.000000pt" viewBox="0 0 512.000000 512.000000"
 preserveAspectRatio="xMidYMid meet">

<g transform="translate(0.000000,512.000000) scale(0.100000,-0.100000)"
fill="#000000" stroke="none">
<path d="M1598 5091 l-33 -29 0 -242 0 -242 33 -29 32 -29 926 0 c1005 0 966
-2 992 55 17 36 17 454 0 490 -26 57 13 55 -992 55 l-926 0 -32 -29z"/>
<path d="M951 4804 c-146 -39 -257 -142 -315 -293 l-21 -56 -3 -2015 c-2
-1483 0 -2031 8 -2075 34 -175 173 -317 348 -354 38 -8 500 -11 1595 -11 1354
0 1550 2 1602 15 150 39 260 141 319 294 l21 56 3 2015 c2 1483 0 2031 -8
2075 -18 91 -56 163 -124 231 -103 102 -197 134 -396 134 l-120 0 0 -130 c0
-106 -4 -142 -21 -192 -38 -114 -106 -188 -219 -242 l-65 -31 -970 -3 c-949
-2 -971 -2 -1036 18 -118 36 -220 132 -261 246 -15 45 -22 92 -26 197 l-5 137
-126 -1 c-77 0 -147 -6 -180 -15z m1194 -1198 c57 -24 93 -97 80 -164 -6 -32
-43 -74 -263 -295 -275 -275 -290 -287 -369 -272 -31 6 -59 28 -165 133 -105
106 -127 134 -133 165 -21 113 85 212 189 177 20 -6 61 -34 92 -62 l55 -51
182 180 c100 99 191 186 202 192 28 15 90 14 130 -3z m1612 -312 c86 -65 86
-183 0 -248 -28 -21 -37 -21 -603 -24 l-575 -2 -40 22 c-41 23 -79 84 -79 128
0 42 38 105 77 128 l38 22 577 -3 c569 -2 577 -2 605 -23z m-1605 -770 c36
-18 66 -59 74 -99 14 -75 5 -86 -255 -348 -135 -137 -259 -256 -276 -264 -46
-25 -110 -19 -155 12 -21 15 -81 71 -134 125 -102 105 -124 148 -112 214 9 47
65 103 111 112 64 12 104 -3 167 -64 l59 -56 188 188 c144 144 196 190 222
196 38 8 71 4 111 -16z m1605 -230 c86 -65 86 -183 0 -248 -28 -21 -37 -21
-603 -24 l-575 -2 -40 22 c-41 23 -79 84 -79 128 0 42 38 105 77 128 l38 22
577 -3 c569 -2 577 -2 605 -23z m-1605 -770 c36 -18 66 -59 74 -99 14 -75 5
-86 -255 -348 -135 -137 -259 -256 -276 -264 -46 -25 -110 -19 -155 12 -21 15
-81 71 -134 125 -102 105 -124 148 -112 214 9 47 65 103 111 112 64 12 104 -3
167 -64 l59 -56 188 188 c144 144 196 190 222 196 38 8 71 4 111 -16z m1598
-225 c42 -24 80 -83 80 -125 0 -49 -38 -113 -81 -134 -37 -19 -61 -20 -605
-20 -564 0 -566 0 -605 22 -41 23 -79 84 -79 128 0 42 38 105 77 128 38 21 41
22 607 22 561 0 569 0 606 -21z"/>
</g>
</svg>
