<?xml version="1.0" standalone="no"?>
<!DOCTYPE svg PUBLIC "-//W3C//DTD SVG 20010904//EN"
 "http://www.w3.org/TR/2001/REC-SVG-20010904/DTD/svg10.dtd">
<svg version="1.0" xmlns="http://www.w3.org/2000/svg"
 width="512.000000pt" height="512.000000pt" viewBox="0 0 512.000000 512.000000"
 preserveAspectRatio="xMidYMid meet">

<g transform="translate(0.000000,512.000000) scale(0.100000,-0.100000)"
fill="#000000" stroke="none">
<path d="M830 5104 c-42 -18 -86 -58 -108 -99 -15 -27 -17 -109 -20 -871 l-3
-842 -92 -4 c-112 -5 -179 -32 -235 -92 -81 -88 -77 -39 -77 -946 0 -801 0
-805 21 -851 54 -116 140 -169 291 -177 l92 -5 3 -536 c3 -588 1 -562 65 -623
65 -62 -61 -58 1793 -58 1854 0 1728 -4 1793 58 64 61 62 35 65 623 l3 536 92
5 c151 8 237 61 291 177 21 46 21 50 21 851 0 907 4 858 -77 946 -56 60 -123
87 -235 92 l-93 4 -1 302 c-1 165 -4 312 -8 326 -8 30 -994 1160 -1033 1184
-24 15 -138 16 -1270 16 -1088 -1 -1247 -3 -1278 -16z m2400 -714 l0 -530 29
-32 29 -33 466 -3 466 -3 0 -249 0 -250 -1660 0 -1660 0 0 815 0 815 1165 0
1165 0 0 -530z m-726 -1440 c149 -38 258 -116 345 -246 168 -251 154 -660 -31
-900 -176 -228 -545 -302 -819 -164 -225 114 -353 372 -336 675 19 323 203
565 487 639 84 22 261 20 354 -4z m1584 -1 c65 -10 151 -35 165 -49 7 -6 -45
-226 -57 -237 -2 -2 -35 5 -73 17 -88 28 -285 39 -364 20 -198 -47 -308 -178
-325 -390 -19 -230 102 -414 308 -470 50 -13 233 -11 256 3 9 6 12 47 12 148
l0 139 -105 0 -105 0 0 120 0 120 255 0 255 0 -2 -357 -3 -358 -78 -22 c-135
-39 -287 -56 -432 -50 -221 9 -365 61 -487 176 -128 120 -187 257 -196 452
-17 414 232 701 653 749 77 9 225 4 323 -11z m-3008 -549 l0 -550 270 0 270 0
0 -130 0 -130 -425 0 -425 0 0 680 0 680 155 0 155 0 0 -550z m3140 -1660 l0
-480 -1660 0 -1660 0 0 480 0 480 1660 0 1660 0 0 -480z"/>
<path d="M2245 2721 c-94 -26 -153 -78 -199 -174 -43 -91 -57 -157 -57 -277 0
-150 32 -259 100 -344 60 -75 131 -108 231 -107 186 1 305 159 317 421 5 96 2
129 -15 195 -46 181 -147 282 -291 291 -31 2 -69 -1 -86 -5z"/>
</g>
</svg>
