<?xml version="1.0" standalone="no"?>
<!DOCTYPE svg PUBLIC "-//W3C//DTD SVG 20010904//EN"
 "http://www.w3.org/TR/2001/REC-SVG-20010904/DTD/svg10.dtd">
<svg version="1.0" xmlns="http://www.w3.org/2000/svg"
 width="512.000000pt" height="512.000000pt" viewBox="0 0 512.000000 512.000000"
 preserveAspectRatio="xMidYMid meet">

<g transform="translate(0.000000,512.000000) scale(0.100000,-0.100000)"
fill="#000000" stroke="none">
<path d="M442 5100 c-106 -28 -187 -75 -267 -155 -81 -81 -127 -161 -155 -271
-20 -75 -20 -117 -20 -1794 0 -1677 0 -1719 20 -1794 28 -110 74 -190 155
-271 81 -81 161 -127 271 -155 74 -19 114 -20 976 -20 494 0 898 2 898 5 0 3
-13 26 -30 53 -46 76 -136 269 -164 357 -82 247 -96 358 -96 774 0 313 -1 333
-17 326 -54 -22 -145 -26 -659 -23 l-559 3 -47 28 c-84 49 -124 149 -97 244
16 59 78 124 135 141 61 18 1154 16 1206 -2 l36 -13 7 54 c14 117 76 248 162
343 l55 60 -721 0 c-788 0 -761 -2 -825 58 -107 100 -79 274 56 343 36 18 73
19 1049 19 1005 0 1013 0 1056 -21 39 -19 72 -51 98 -93 9 -15 45 -5 338 95
l328 112 -3 566 c-3 513 -5 571 -22 621 -69 211 -221 359 -421 410 -76 20
-111 20 -1374 19 -1243 0 -1299 -1 -1369 -19z m1370 -863 c84 -49 124 -149 97
-244 -16 -59 -78 -124 -135 -141 -59 -17 -929 -17 -988 0 -81 25 -146 118
-146 210 0 82 78 178 162 198 18 5 242 8 498 7 l465 -2 47 -28z"/>
<path d="M3151 2890 c-384 -131 -595 -208 -617 -225 -19 -15 -44 -45 -57 -68
-22 -41 -22 -48 -25 -497 -4 -496 4 -643 43 -796 118 -467 486 -894 1031
-1198 231 -129 263 -131 449 -37 249 126 482 298 675 498 236 245 375 494 442
791 20 92 22 126 25 629 3 368 1 544 -7 572 -12 46 -59 105 -100 126 -15 8
-281 101 -591 206 -436 149 -578 193 -624 196 -56 3 -102 -11 -644 -197z
m1318 -676 c59 -30 98 -79 112 -145 21 -91 16 -100 -357 -598 -323 -430 -349
-462 -397 -485 -55 -28 -100 -32 -162 -15 -33 9 -83 54 -283 253 -134 132
-253 259 -265 281 -41 78 -21 191 45 252 55 51 166 69 231 37 18 -9 96 -79
174 -157 78 -78 144 -139 146 -137 2 3 119 159 260 347 141 188 267 348 279
355 79 45 143 48 217 12z"/>
</g>
</svg>
