<?xml version="1.0" standalone="no"?>
<!DOCTYPE svg PUBLIC "-//W3C//DTD SVG 20010904//EN"
 "http://www.w3.org/TR/2001/REC-SVG-20010904/DTD/svg10.dtd">
<svg version="1.0" xmlns="http://www.w3.org/2000/svg"
 width="512.000000pt" height="512.000000pt" viewBox="0 0 512.000000 512.000000"
 preserveAspectRatio="xMidYMid meet">

<g transform="translate(0.000000,512.000000) scale(0.100000,-0.100000)"
fill="#000000" stroke="none">
<path d="M4023 5099 c-270 -57 -508 -239 -630 -484 -118 -237 -123 -426 -23
-957 32 -171 45 -206 87 -236 61 -43 133 -39 189 10 57 50 60 83 25 271 -54
289 -64 370 -65 497 -1 106 3 135 22 191 88 255 312 420 572 421 177 1 298
-49 420 -172 83 -83 115 -136 156 -255 23 -69 28 -101 32 -227 11 -369 -86
-797 -261 -1143 -68 -136 -78 -192 -41 -243 65 -87 171 -96 241 -20 30 32 124
224 171 348 136 362 195 665 195 1005 1 197 -15 296 -69 432 -73 186 -230 373
-386 461 -197 111 -419 147 -635 101z"/>
<path d="M2450 4300 c-58 -4 -115 -12 -125 -18 -11 -6 -525 -516 -1142 -1134
-734 -735 -1128 -1137 -1141 -1163 -51 -102 -49 -227 3 -324 18 -33 268 -288
808 -828 694 -692 788 -782 836 -802 102 -43 217 -37 306 15 22 13 549 533
1172 1156 1025 1026 1132 1137 1140 1173 15 75 8 666 -11 880 -23 270 -73 728
-86 794 -13 70 -42 115 -88 137 -32 15 -185 42 -324 56 -38 5 -47 2 -51 -12
-5 -20 5 -139 23 -258 11 -73 14 -80 64 -132 64 -66 89 -107 110 -179 35 -120
10 -263 -63 -361 -86 -114 -196 -170 -337 -170 -300 0 -502 314 -376 584 l31
67 -21 132 c-12 75 -21 184 -22 254 l-1 122 -70 5 c-128 10 -528 14 -635 6z
m468 -1453 l92 -92 -84 -84 -85 -84 43 -51 c76 -90 166 -243 166 -282 0 -9
-189 -125 -261 -160 -3 -2 -18 27 -34 64 -62 146 -180 294 -273 341 -79 40
-166 20 -197 -45 -30 -63 -17 -119 81 -351 118 -278 132 -403 60 -547 -73
-150 -212 -250 -372 -269 -78 -10 -95 -9 -171 11 -78 20 -132 43 -210 88 l-33
19 -97 -97 -98 -98 -93 92 -92 93 92 92 91 91 -45 54 c-25 29 -58 73 -75 98
-50 74 -132 245 -122 254 2 3 65 40 139 85 115 68 136 78 142 63 4 -9 18 -46
32 -81 76 -196 238 -373 369 -405 69 -16 151 37 168 110 14 60 -6 132 -82 306
-89 203 -113 294 -107 407 3 70 10 99 35 152 59 126 193 227 332 250 112 18
262 -17 371 -86 l37 -23 89 89 c49 49 91 89 94 89 3 0 47 -42 98 -93z"/>
</g>
</svg>
