<?xml version="1.0" standalone="no"?>
<!DOCTYPE svg PUBLIC "-//W3C//DTD SVG 20010904//EN"
 "http://www.w3.org/TR/2001/REC-SVG-20010904/DTD/svg10.dtd">
<svg version="1.0" xmlns="http://www.w3.org/2000/svg"
 width="512.000000pt" height="512.000000pt" viewBox="0 0 512.000000 512.000000"
 preserveAspectRatio="xMidYMid meet">

<g transform="translate(0.000000,512.000000) scale(0.100000,-0.100000)"
fill="#000000" stroke="none">
<path d="M2631 5109 c-211 -64 -316 -403 -220 -709 32 -101 78 -179 144 -245
70 -70 119 -97 193 -103 79 -7 135 13 198 70 208 191 199 645 -17 882 -85 93
-202 134 -298 105z"/>
<path d="M3790 5111 c-134 -44 -258 -196 -306 -376 -24 -92 -29 -265 -10 -355
30 -143 114 -267 209 -310 146 -67 324 28 421 224 172 348 42 804 -233 822
-31 2 -67 0 -81 -5z"/>
<path d="M1740 4371 c-117 -38 -170 -123 -170 -273 0 -103 12 -153 67 -267 36
-75 59 -108 121 -171 89 -89 142 -123 232 -146 54 -14 73 -14 118 -4 314 70
191 660 -173 831 -63 30 -153 44 -195 30z"/>
<path d="M4660 4358 c-150 -52 -290 -204 -357 -386 -29 -78 -42 -224 -24 -287
66 -243 351 -237 556 13 186 225 208 543 44 644 -64 40 -136 45 -219 16z"/>
<path d="M3077 3754 c-274 -49 -516 -209 -670 -442 -228 -341 -269 -790 -106
-1130 68 -142 148 -202 269 -202 87 0 167 30 349 129 216 118 254 133 341 138
97 6 147 -12 354 -124 205 -111 264 -135 352 -141 89 -6 134 9 190 60 123 113
197 339 197 598 0 497 -290 927 -725 1076 -157 53 -381 69 -551 38z"/>
<path d="M105 2061 c-11 -5 -29 -19 -40 -31 -20 -22 -20 -38 -23 -972 -2 -644
1 -962 8 -989 18 -66 33 -69 310 -69 245 0 270 3 297 39 10 12 12 241 13 993
l0 977 -24 28 -24 28 -249 2 c-136 1 -257 -1 -268 -6z"/>
<path d="M915 1881 c-11 -5 -29 -19 -40 -31 -20 -22 -20 -38 -23 -849 -2 -607
1 -833 9 -854 25 -61 -47 -57 1144 -57 1214 0 1158 -3 1290 69 55 30 945 569
1637 993 113 69 138 101 138 174 0 87 -63 154 -145 154 -25 0 -350 -104 -900
-288 l-860 -287 -505 -6 c-552 -6 -560 -7 -696 -69 -36 -16 -93 -48 -125 -70
-72 -49 -109 -52 -150 -11 -31 31 -37 67 -18 102 23 44 197 141 324 182 120
39 208 47 529 47 l293 0 19 42 c59 132 -21 294 -184 371 l-67 32 -355 6 c-350
5 -356 6 -445 33 -106 32 -206 84 -318 165 -101 73 -164 105 -258 131 -80 22
-263 35 -294 21z"/>
</g>
</svg>
