<?xml version="1.0" standalone="no"?>
<!DOCTYPE svg PUBLIC "-//W3C//DTD SVG 20010904//EN"
 "http://www.w3.org/TR/2001/REC-SVG-20010904/DTD/svg10.dtd">
<svg version="1.0" xmlns="http://www.w3.org/2000/svg"
 width="512.000000pt" height="512.000000pt" viewBox="0 0 512.000000 512.000000"
 preserveAspectRatio="xMidYMid meet">

<g transform="translate(0.000000,512.000000) scale(0.100000,-0.100000)"
fill="#000000" stroke="none">
<path d="M2430 5114 c-270 -35 -498 -127 -695 -283 -353 -280 -546 -707 -521
-1151 25 -436 235 -892 558 -1208 l91 -90 -272 -136 c-250 -126 -279 -138
-350 -147 -127 -15 -229 -46 -346 -104 -280 -138 -467 -369 -553 -684 l-27
-96 0 -560 0 -560 22 -31 c48 -68 -14 -64 1082 -64 l991 0 0 558 0 558 75 37
75 37 75 -37 75 -37 0 -558 0 -558 991 0 c1096 0 1034 -4 1082 64 l22 31 0
560 0 560 -27 96 c-86 315 -273 546 -553 684 -117 58 -219 89 -346 104 -71 9
-100 21 -350 147 l-272 136 91 90 c323 316 533 772 558 1208 39 677 -434 1286
-1097 1415 -83 16 -311 27 -379 19z m495 -1275 c153 -155 337 -228 578 -229
l98 0 -6 -37 c-34 -204 -123 -435 -232 -606 -105 -164 -173 -240 -361 -405
-89 -79 -116 -126 -117 -207 0 -46 6 -72 26 -110 l25 -50 -184 -277 c-102
-153 -188 -278 -192 -278 -4 0 -93 129 -198 288 l-192 287 22 45 c30 60 29
139 -1 200 -14 28 -79 100 -170 190 -151 148 -217 232 -310 395 -81 141 -162
370 -185 522 l-6 42 432 3 c374 3 441 6 493 21 140 41 250 106 350 206 33 34
62 61 65 61 3 0 32 -27 65 -61z m-796 -2102 c117 -176 211 -320 209 -322 -2
-1 -76 -39 -164 -83 l-162 -81 -216 326 c-120 179 -216 326 -214 328 17 15
325 162 329 157 4 -4 102 -150 218 -325z m1409 168 c2 -2 -94 -149 -214 -328
l-216 -326 -162 81 c-88 44 -162 82 -164 83 -2 2 94 149 214 328 l216 326 162
-81 c88 -44 162 -82 164 -83z m592 -1015 c45 -23 80 -80 80 -130 0 -50 -35
-107 -80 -130 -37 -19 -58 -20 -370 -20 -312 0 -333 1 -370 20 -45 23 -80 80
-80 130 0 48 35 107 78 129 35 19 58 20 370 21 314 0 335 -1 372 -20z"/>
</g>
</svg>
